<svg width="19" height="18" viewBox="0 0 19 18" fill="none" xmlns="http://www.w3.org/2000/svg">
<path d="M0 1.5C0 0.670312 0.606473 0 1.35714 0H17.6429C18.3935 0 19 0.670312 19 1.5C19 2.32969 18.3935 3 17.6429 3H1.35714C0.606473 3 0 2.32969 0 1.5ZM0 9C0 8.17031 0.606473 7.5 1.35714 7.5H17.6429C18.3935 7.5 19 8.17031 19 9C19 9.82969 18.3935 10.5 17.6429 10.5H1.35714C0.606473 10.5 0 9.82969 0 9ZM19 16.5C19 17.3297 18.3935 18 17.6429 18H1.35714C0.606473 18 0 17.3297 0 16.5C0 15.6703 0.606473 15 1.35714 15H17.6429C18.3935 15 19 15.6703 19 16.5Z" fill="white"/>
</svg>
