<svg width="100" height="117" viewBox="0 0 100 117" fill="none" xmlns="http://www.w3.org/2000/svg">
<g clip-path="url(#clip0_3_211)">
<path d="M78.7771 71.4061C78.621 71.6886 78.465 71.9712 78.2916 72.2482C76.627 74.9159 74.3903 77.2412 71.5814 79.2134C68.7724 81.1856 65.5069 82.7014 61.7732 83.7608C58.0396 84.8202 54.1152 85.3038 49.9827 85.206C45.8502 85.1082 41.9721 84.4291 38.3482 83.1632C34.7243 81.8973 31.5629 80.1967 28.8637 78.0616C26.1646 75.9264 24.0551 73.487 22.535 70.7433C22.4194 70.5369 22.3211 70.325 22.2113 70.1131C19.9052 70.1565 13.3453 69.8903 12.7038 69.874C12.3107 69.8632 9.66365 69.7762 7.15527 69.6947C7.67544 71.4116 8.38057 73.0958 9.28219 74.7311C11.5363 78.8331 14.64 82.4243 18.5933 85.5157C22.5466 88.6071 27.205 91.0737 32.5685 92.9209C37.9321 94.7681 43.6597 95.7623 49.7573 95.909C50.8496 95.9362 51.9189 95.9253 52.9881 95.8927L64.7035 117L77.9159 113.061L67.1715 93.7087C72.5003 92.1168 77.1934 89.8621 81.245 86.95C85.3196 84.0216 88.5447 80.5716 90.9259 76.6164C91.868 75.0517 92.6252 73.4327 93.2147 71.7701C88.5852 71.6887 81.7652 71.5257 78.7655 71.4116L78.7771 71.4061Z" fill="#171E21"/>
<path d="M49.3064 0C48.5319 0.010866 47.4395 0.0488971 46.7228 0.0869282C40.5039 0.423775 34.493 1.74943 29.1006 3.97153C24.9508 5.68837 21.2345 7.90504 18.1597 10.5129C13.5186 14.4464 10.4149 19.1622 9.1665 24.1932C8.78504 25.7308 8.60587 27.0401 8.53073 28.8656L8.49606 29.7512L8.37468 29.9251C8.21863 30.1424 7.90075 30.3543 7.60021 30.4358C7.4037 30.4901 6.47317 30.4195 6.47317 30.4195H5.31145L5.1554 44.241C5.01091 57.0304 4.99935 58.0789 5.05715 58.2365C5.24788 58.7798 5.53686 59.1655 6.01657 59.5078C6.39803 59.7795 6.7217 59.9316 7.16673 60.0403C7.43838 60.1109 7.52507 60.1163 8.13194 60.1326C8.87174 60.1489 9.15494 60.1326 9.57686 60.0077C9.70979 59.9751 9.83116 59.937 9.8485 59.9316C9.87162 59.9316 10.0161 60.0783 10.1722 60.2684C11.2183 61.5343 12.7615 62.6644 14.5763 63.4848C16.4547 64.3323 18.7319 64.8539 20.9455 64.9517L21.4946 64.9734L22.0725 50.7933V36.3903H21.824C21.7315 36.3903 21.4368 36.3958 21.1767 36.4066C18.8764 36.5099 16.8072 36.9934 14.8942 37.879C14.085 38.2539 13.6053 38.5255 12.8597 39.0417C12.5072 39.2861 12.2124 39.4872 12.2066 39.4872C12.2008 39.4872 12.2182 37.6671 12.2471 35.445L12.2933 31.4028L12.4667 31.3757C13.114 31.267 13.7787 30.9193 14.137 30.5118C14.4549 30.1478 14.5647 29.811 14.5763 29.1699C14.6688 23.036 17.8591 17.1846 23.6157 12.5829C24.2515 12.0722 25.6328 11.0942 26.3668 10.6215C32.0771 6.98142 39.2728 4.76475 46.8558 4.30838C48.9827 4.17799 51.3004 4.18886 53.3059 4.33011C59.0625 4.72672 64.4722 6.07411 69.3156 8.30708C77.7077 12.1754 83.5047 18.4071 85.1982 25.3993C85.5392 26.8065 85.6837 27.9692 85.7183 29.5284C85.7357 30.6531 85.7472 30.7128 86.0073 31.104C86.1981 31.392 86.4524 31.6202 86.7934 31.8103C87.1055 31.9842 87.3309 32.0711 87.6834 32.1526L87.9435 32.2124L87.8973 36.4936C87.8568 39.8512 87.8395 40.5303 87.799 40.4977C87.7701 40.476 87.6256 40.3564 87.4638 40.2261C86.8627 39.7425 86.0015 39.2101 85.0768 38.7646C83.1753 37.841 80.9501 37.2922 78.592 37.1781L78.1123 37.1564L78.6902 51.3909V65.6471L78.5284 65.6363C81.2333 65.5819 83.8977 64.8919 86.1056 63.6749C86.6257 63.387 87.7586 62.6046 88.1747 62.2406C88.5735 61.8983 89.0821 61.3713 89.348 61.0454C89.4578 60.9095 89.5503 60.7954 89.5503 60.79C89.5503 60.79 89.6312 60.8117 89.7179 60.8498C89.8046 60.8878 90.0126 60.9476 90.1687 60.991C90.4346 61.0562 90.5213 61.0671 91.0877 61.0834C91.7754 61.1051 92.1511 61.0725 92.5152 60.9639C93.5903 60.6542 94.3416 59.8936 94.5034 58.9537C94.5323 58.7798 94.5959 54.5746 94.8618 45.0669V31.43L93.9486 31.4137L93.0181 31.3974L92.7753 31.3159C92.3361 31.1638 92.0297 30.8704 91.9488 30.5281C91.9257 30.4412 91.9141 30.05 91.9199 29.6534C91.9373 27.0021 91.394 24.2421 90.3363 21.6234C87.643 14.9299 81.7246 9.1166 73.5695 5.1668C67.7031 2.31446 60.9524 0.592199 53.8203 0.124959C52.3985 0.0325981 50.5837 -0.016299 49.3064 0.00543302V0Z" fill="#171E21"/>
<path d="M4.16134 45.4417C2.29451 45.6156 0.676199 46.6153 0.184926 47.9029C0.0288748 48.3049 0.0230952 48.419 0.00575614 50.7063C-0.00580322 52.684 0.00575614 52.923 0.0519936 53.0751C0.352537 53.8955 0.843809 54.4931 1.62407 54.9713C2.42166 55.4602 3.34641 55.7373 4.40409 55.8134L4.72775 55.8351L5.30572 50.6303V45.6319H4.60638C4.47923 45.4254 4.27694 45.4309 4.15556 45.4417H4.16134Z" fill="#171E21"/>
<path d="M95.4687 51.5919L94.8907 56.8022L95.4514 56.7859C96.6247 56.7261 97.6766 56.4001 98.5088 55.8351C99.1735 55.3842 99.5896 54.868 99.8671 54.14C99.9248 53.9879 99.9364 53.7488 99.9711 51.7603C100.006 49.799 100 49.5219 99.9538 49.2883C99.7283 48.2832 98.873 47.3976 97.6245 46.8598C97.0524 46.6153 96.2837 46.4414 95.6306 46.4034L95.4687 46.3817V51.5919Z" fill="#171E21"/>
<path d="M40.8218 41.8397C40.7062 41.856 40.5097 41.9755 40.3768 42.1059L40.134 42.3449V63.6532L40.371 63.8923C40.5039 64.0118 40.7178 64.1368 40.8449 64.1639C41.157 64.2182 41.6656 63.9629 41.8101 63.6804C41.9026 63.4957 41.9257 61.2247 41.9026 52.8958C41.8853 42.7687 41.8737 42.3232 41.7119 42.1493C41.5038 41.932 41.1166 41.7908 40.8218 41.8397Z" fill="#9F3FE5"/>
<path d="M62.2703 41.8397C62.1547 41.856 61.9697 41.9701 61.8426 42.095L61.6172 42.3341V63.6804L61.8542 63.8977C62.2241 64.2563 62.75 64.2454 63.1199 63.8977L63.3626 63.6532V42.3449L63.1257 42.1059C62.8829 41.8668 62.6171 41.7853 62.2645 41.8397H62.2703Z" fill="#9F3FE5"/>
<path d="M30.0601 45.0397C29.9445 45.056 29.7364 45.1973 29.6093 45.3385L29.3723 45.621V60.3934L29.6382 60.6759C30.0081 61.078 30.534 61.078 30.9039 60.6759L31.1698 60.3934V45.621L30.9328 45.3494C30.6959 45.0777 30.4416 44.9854 30.0659 45.0397H30.0601Z" fill="#9F3FE5"/>
<path d="M44.2319 46.1535C43.7002 46.3654 43.7233 46.11 43.7233 53.0208V59.3829L43.9487 59.6382C44.2724 59.9968 44.8446 59.9968 45.2145 59.6382L45.4688 59.3937V46.6098L45.2318 46.3817C44.9659 46.1263 44.5324 46.0231 44.2319 46.1535Z" fill="#9F3FE5"/>
<path d="M58.6002 46.1426C58.4962 46.1861 58.3286 46.3165 58.2245 46.4251C58.0338 46.6261 58.0338 46.7511 58.0338 52.9991V59.372L58.2592 59.6111C58.3806 59.7414 58.6002 59.8664 58.7505 59.8936C59.051 59.9588 59.5365 59.7469 59.6868 59.4915C59.7446 59.372 59.7793 57.1553 59.7793 52.9991C59.7793 48.8428 59.7388 46.6261 59.6868 46.5066C59.5828 46.3219 59.1204 46.0611 58.9123 46.0665C58.8487 46.0665 58.7043 46.1046 58.6002 46.1372V46.1426Z" fill="#9F3FE5"/>
<path d="M33.5222 46.6153C33.3892 46.6587 33.2101 46.8 33.1234 46.9087C32.9731 47.0934 32.9558 47.5552 32.9558 52.9828C32.9558 59.4752 32.9269 59.1927 33.5626 59.3937C33.9325 59.5024 34.2446 59.4209 34.5163 59.1221C34.707 58.9211 34.707 58.7961 34.707 52.9936V47.0662L34.47 46.8489C34.1868 46.5773 33.8458 46.4903 33.528 46.6207L33.5222 46.6153Z" fill="#9F3FE5"/>
<path d="M65.7786 46.599C65.6745 46.6424 65.5069 46.7728 65.4029 46.8815C65.2122 47.0825 65.2122 47.2075 65.2122 52.9991C65.2122 58.7907 65.2122 58.9156 65.4029 59.1166C65.6745 59.4155 65.9866 59.5024 66.3565 59.3883C66.9865 59.1873 66.9634 59.4698 66.9634 52.9991C66.9634 46.5284 66.9923 46.8163 66.3797 46.6153C66.0502 46.4958 66.0387 46.4957 65.7843 46.599H65.7786Z" fill="#9F3FE5"/>
<path d="M47.8326 47.6041C47.7286 47.6476 47.561 47.7779 47.457 47.8866C47.2778 48.0876 47.2662 48.2126 47.2662 53.0099V57.9323L47.5205 58.1767C47.8904 58.5353 48.4626 58.5353 48.7863 58.1767L49.0117 57.9214V48.0768L48.8036 47.8486C48.5667 47.5932 48.1216 47.4846 47.8326 47.6041Z" fill="#9F3FE5"/>
<path d="M55.011 47.6041C54.907 47.6476 54.7393 47.7779 54.6353 47.8866C54.4561 48.0876 54.4446 48.2126 54.4446 53.0099V57.9323L54.6989 58.1767C55.0688 58.5353 55.641 58.5353 55.9646 58.1767L56.19 57.9214V48.0768L55.982 47.8486C55.745 47.5932 55.3 47.4846 55.011 47.6041Z" fill="#9F3FE5"/>
<path d="M26.0895 49.6578L25.8236 49.8751V56.1176L26.0895 56.3349C26.4652 56.6446 26.9391 56.6283 27.2974 56.2915L27.5691 56.0253V49.962L27.2974 49.6958C26.9391 49.359 26.4652 49.3372 26.0895 49.6523V49.6578Z" fill="#9F3FE5"/>
<path d="M36.8223 49.7012L36.5507 49.9675V56.0307L36.8223 56.2969C37.2962 56.7533 38.0245 56.5957 38.2383 55.9981C38.3019 55.8242 38.3424 54.6996 38.3424 53.0045C38.3424 51.3094 38.3019 50.1848 38.2383 50.0109C38.0187 49.4079 37.2962 49.2557 36.8223 49.7121V49.7012Z" fill="#9F3FE5"/>
<path d="M51.1964 49.6741L50.9016 49.9131V56.085L51.1964 56.3241C51.6992 56.737 52.387 56.5686 52.5951 55.9981C52.7395 55.6124 52.7395 50.3912 52.5951 50.0109C52.387 49.435 51.6992 49.272 51.1964 49.6849V49.6741Z" fill="#9F3FE5"/>
<path d="M69.0614 49.6578L68.7955 49.8751V56.1176L69.0614 56.3349C69.4371 56.6446 69.911 56.6283 70.2694 56.2915L70.541 56.0253V49.962L70.2694 49.6958C69.911 49.359 69.4371 49.3372 69.0614 49.6523V49.6578Z" fill="#9F3FE5"/>
<path d="M72.6159 49.7012L72.3442 49.9675V56.0307L72.6159 56.2969C72.9742 56.6338 73.4482 56.6555 73.8238 56.3404L74.0897 56.1231V49.8805L73.8238 49.6632C73.4482 49.3535 72.9742 49.3698 72.6159 49.7067V49.7012Z" fill="#9F3FE5"/>
</g>
<defs>
<clipPath id="clip0_3_211">
<rect width="100" height="117" fill="white"/>
</clipPath>
</defs>
</svg>
